<mxfile host="app.diagrams.net" modified="2020-09-04T04:10:48.344Z" agent="5.0 (Macintosh; Intel Mac OS X 10_15_5) AppleWebKit/537.36 (KHTML, like Gecko) Chrome/85.0.4183.83 Safari/537.36" etag="aG04CF-itiBEIQPOxrwW" version="13.6.6" type="github">
  <diagram id="0rV6apbGINLAgSeMIbQS" name="Page-1">
    <mxGraphModel dx="1251" dy="735" grid="1" gridSize="10" guides="1" tooltips="1" connect="1" arrows="1" fold="1" page="1" pageScale="1" pageWidth="1100" pageHeight="850" math="0" shadow="0">
      <root>
        <mxCell id="0" />
        <mxCell id="1" parent="0" />
        <mxCell id="3IBG2ivtL27hc_QX_15x-55" value="" style="rounded=0;whiteSpace=wrap;html=1;fontSize=22;" parent="1" vertex="1">
          <mxGeometry x="1770" y="250" width="410" height="880" as="geometry" />
        </mxCell>
        <mxCell id="3IBG2ivtL27hc_QX_15x-5" value="" style="rounded=0;whiteSpace=wrap;html=1;" parent="1" vertex="1">
          <mxGeometry x="80" y="80" width="480" height="560" as="geometry" />
        </mxCell>
        <mxCell id="3IBG2ivtL27hc_QX_15x-6" value="Home" style="rounded=0;whiteSpace=wrap;html=1;" parent="1" vertex="1">
          <mxGeometry x="100" y="140" width="90" height="30" as="geometry" />
        </mxCell>
        <mxCell id="3IBG2ivtL27hc_QX_15x-36" style="edgeStyle=orthogonalEdgeStyle;curved=1;rounded=0;orthogonalLoop=1;jettySize=auto;html=1;exitX=0.5;exitY=0;exitDx=0;exitDy=0;entryX=0.5;entryY=0;entryDx=0;entryDy=0;dashed=1;dashPattern=1 1;endArrow=open;endFill=0;fontSize=22;fillColor=#f8cecc;strokeColor=#b85450;strokeWidth=6;" parent="1" source="3IBG2ivtL27hc_QX_15x-7" target="3IBG2ivtL27hc_QX_15x-18" edge="1">
          <mxGeometry relative="1" as="geometry">
            <Array as="points">
              <mxPoint x="255" y="10" />
              <mxPoint x="850" y="10" />
            </Array>
          </mxGeometry>
        </mxCell>
        <mxCell id="3IBG2ivtL27hc_QX_15x-7" value="View Results" style="rounded=0;whiteSpace=wrap;html=1;" parent="1" vertex="1">
          <mxGeometry x="210" y="140" width="90" height="30" as="geometry" />
        </mxCell>
        <mxCell id="3IBG2ivtL27hc_QX_15x-49" style="edgeStyle=orthogonalEdgeStyle;curved=1;rounded=0;orthogonalLoop=1;jettySize=auto;html=1;exitX=0.5;exitY=1;exitDx=0;exitDy=0;entryX=-0.006;entryY=0.53;entryDx=0;entryDy=0;entryPerimeter=0;dashed=1;dashPattern=1 1;endArrow=open;endFill=0;strokeWidth=6;fontSize=22;" parent="1" source="3IBG2ivtL27hc_QX_15x-8" target="3IBG2ivtL27hc_QX_15x-37" edge="1">
          <mxGeometry relative="1" as="geometry">
            <Array as="points">
              <mxPoint x="365" y="987" />
            </Array>
          </mxGeometry>
        </mxCell>
        <mxCell id="3IBG2ivtL27hc_QX_15x-8" value="CO2 Calculator" style="rounded=0;whiteSpace=wrap;html=1;" parent="1" vertex="1">
          <mxGeometry x="320" y="140" width="90" height="30" as="geometry" />
        </mxCell>
        <mxCell id="3IBG2ivtL27hc_QX_15x-9" value="Shrink Footpint" style="rounded=0;whiteSpace=wrap;html=1;" parent="1" vertex="1">
          <mxGeometry x="430" y="140" width="90" height="30" as="geometry" />
        </mxCell>
        <mxCell id="3IBG2ivtL27hc_QX_15x-10" value="Heading" style="text;html=1;strokeColor=none;fillColor=none;align=center;verticalAlign=middle;whiteSpace=wrap;rounded=0;fontSize=22;" parent="1" vertex="1">
          <mxGeometry x="160" y="100" width="280" height="20" as="geometry" />
        </mxCell>
        <mxCell id="3IBG2ivtL27hc_QX_15x-11" value="Video" style="rounded=0;whiteSpace=wrap;html=1;" parent="1" vertex="1">
          <mxGeometry x="150" y="230" width="350" height="170" as="geometry" />
        </mxCell>
        <mxCell id="3IBG2ivtL27hc_QX_15x-12" value="" style="rounded=1;whiteSpace=wrap;html=1;" parent="1" vertex="1">
          <mxGeometry x="240" y="310" width="120" height="60" as="geometry" />
        </mxCell>
        <mxCell id="3IBG2ivtL27hc_QX_15x-13" value="Picture" style="rounded=0;whiteSpace=wrap;html=1;" parent="1" vertex="1">
          <mxGeometry x="150" y="430" width="170" height="160" as="geometry" />
        </mxCell>
        <mxCell id="3IBG2ivtL27hc_QX_15x-14" value="Text" style="text;html=1;strokeColor=none;fillColor=none;align=center;verticalAlign=middle;whiteSpace=wrap;rounded=0;" parent="1" vertex="1">
          <mxGeometry x="280" y="330" width="40" height="20" as="geometry" />
        </mxCell>
        <mxCell id="3IBG2ivtL27hc_QX_15x-15" value="Text" style="text;html=1;strokeColor=none;fillColor=none;align=center;verticalAlign=middle;whiteSpace=wrap;rounded=0;" parent="1" vertex="1">
          <mxGeometry x="370" y="430" width="130" height="160" as="geometry" />
        </mxCell>
        <mxCell id="3IBG2ivtL27hc_QX_15x-16" value="Footer" style="rounded=0;whiteSpace=wrap;html=1;" parent="1" vertex="1">
          <mxGeometry x="280" y="600" width="120" height="30" as="geometry" />
        </mxCell>
        <mxCell id="3IBG2ivtL27hc_QX_15x-17" value="Text" style="text;html=1;strokeColor=none;fillColor=none;align=center;verticalAlign=middle;whiteSpace=wrap;rounded=0;" parent="1" vertex="1">
          <mxGeometry x="280" y="330" width="40" height="20" as="geometry" />
        </mxCell>
        <mxCell id="3IBG2ivtL27hc_QX_15x-51" style="edgeStyle=orthogonalEdgeStyle;rounded=0;orthogonalLoop=1;jettySize=auto;html=1;exitX=1;exitY=0.5;exitDx=0;exitDy=0;endArrow=open;endFill=0;strokeWidth=1;fontSize=22;" parent="1" source="3IBG2ivtL27hc_QX_15x-18" target="3IBG2ivtL27hc_QX_15x-50" edge="1">
          <mxGeometry relative="1" as="geometry" />
        </mxCell>
        <mxCell id="3IBG2ivtL27hc_QX_15x-18" value="" style="rounded=0;whiteSpace=wrap;html=1;" parent="1" vertex="1">
          <mxGeometry x="610" y="80" width="480" height="560" as="geometry" />
        </mxCell>
        <mxCell id="3IBG2ivtL27hc_QX_15x-19" value="Home" style="rounded=0;whiteSpace=wrap;html=1;" parent="1" vertex="1">
          <mxGeometry x="630" y="140" width="90" height="30" as="geometry" />
        </mxCell>
        <mxCell id="3IBG2ivtL27hc_QX_15x-20" value="View Results" style="rounded=0;whiteSpace=wrap;html=1;" parent="1" vertex="1">
          <mxGeometry x="740" y="140" width="90" height="30" as="geometry" />
        </mxCell>
        <mxCell id="3IBG2ivtL27hc_QX_15x-21" value="CO2 Calculator" style="rounded=0;whiteSpace=wrap;html=1;" parent="1" vertex="1">
          <mxGeometry x="850" y="140" width="90" height="30" as="geometry" />
        </mxCell>
        <mxCell id="3IBG2ivtL27hc_QX_15x-22" value="Shrink Footpint" style="rounded=0;whiteSpace=wrap;html=1;" parent="1" vertex="1">
          <mxGeometry x="960" y="140" width="90" height="30" as="geometry" />
        </mxCell>
        <mxCell id="3IBG2ivtL27hc_QX_15x-23" value="Heading" style="text;html=1;strokeColor=none;fillColor=none;align=center;verticalAlign=middle;whiteSpace=wrap;rounded=0;fontSize=22;" parent="1" vertex="1">
          <mxGeometry x="690" y="100" width="280" height="20" as="geometry" />
        </mxCell>
        <mxCell id="3IBG2ivtL27hc_QX_15x-29" value="Footer" style="rounded=0;whiteSpace=wrap;html=1;" parent="1" vertex="1">
          <mxGeometry x="810" y="600" width="120" height="30" as="geometry" />
        </mxCell>
        <mxCell id="3IBG2ivtL27hc_QX_15x-31" value="User 1 detail" style="rounded=0;whiteSpace=wrap;html=1;fontSize=22;" parent="1" vertex="1">
          <mxGeometry x="680" y="220" width="350" height="60" as="geometry" />
        </mxCell>
        <mxCell id="3IBG2ivtL27hc_QX_15x-34" style="edgeStyle=orthogonalEdgeStyle;rounded=0;orthogonalLoop=1;jettySize=auto;html=1;exitX=0.5;exitY=1;exitDx=0;exitDy=0;fontSize=22;endArrow=none;endFill=0;dashed=1;dashPattern=1 1;" parent="1" source="3IBG2ivtL27hc_QX_15x-32" target="3IBG2ivtL27hc_QX_15x-33" edge="1">
          <mxGeometry relative="1" as="geometry" />
        </mxCell>
        <mxCell id="3IBG2ivtL27hc_QX_15x-32" value="User 2 detail" style="rounded=0;whiteSpace=wrap;html=1;fontSize=22;" parent="1" vertex="1">
          <mxGeometry x="675" y="310" width="350" height="60" as="geometry" />
        </mxCell>
        <mxCell id="3IBG2ivtL27hc_QX_15x-33" value="User N&amp;nbsp;detail" style="rounded=0;whiteSpace=wrap;html=1;fontSize=22;" parent="1" vertex="1">
          <mxGeometry x="675" y="470" width="350" height="60" as="geometry" />
        </mxCell>
        <mxCell id="3IBG2ivtL27hc_QX_15x-53" style="edgeStyle=orthogonalEdgeStyle;rounded=0;orthogonalLoop=1;jettySize=auto;html=1;exitX=1;exitY=0.5;exitDx=0;exitDy=0;endArrow=open;endFill=0;strokeWidth=1;fontSize=22;" parent="1" source="3IBG2ivtL27hc_QX_15x-37" target="3IBG2ivtL27hc_QX_15x-52" edge="1">
          <mxGeometry relative="1" as="geometry" />
        </mxCell>
        <mxCell id="3IBG2ivtL27hc_QX_15x-37" value="" style="rounded=0;whiteSpace=wrap;html=1;" parent="1" vertex="1">
          <mxGeometry x="615" y="690" width="480" height="560" as="geometry" />
        </mxCell>
        <mxCell id="3IBG2ivtL27hc_QX_15x-38" value="Home" style="rounded=0;whiteSpace=wrap;html=1;" parent="1" vertex="1">
          <mxGeometry x="635" y="750" width="90" height="30" as="geometry" />
        </mxCell>
        <mxCell id="3IBG2ivtL27hc_QX_15x-39" value="View Results" style="rounded=0;whiteSpace=wrap;html=1;" parent="1" vertex="1">
          <mxGeometry x="745" y="750" width="90" height="30" as="geometry" />
        </mxCell>
        <mxCell id="3IBG2ivtL27hc_QX_15x-40" value="CO2 Calculator" style="rounded=0;whiteSpace=wrap;html=1;" parent="1" vertex="1">
          <mxGeometry x="855" y="750" width="90" height="30" as="geometry" />
        </mxCell>
        <mxCell id="3IBG2ivtL27hc_QX_15x-41" value="Shrink Footpint" style="rounded=0;whiteSpace=wrap;html=1;" parent="1" vertex="1">
          <mxGeometry x="965" y="750" width="90" height="30" as="geometry" />
        </mxCell>
        <mxCell id="3IBG2ivtL27hc_QX_15x-42" value="Heading" style="text;html=1;strokeColor=none;fillColor=none;align=center;verticalAlign=middle;whiteSpace=wrap;rounded=0;fontSize=22;" parent="1" vertex="1">
          <mxGeometry x="695" y="710" width="280" height="20" as="geometry" />
        </mxCell>
        <mxCell id="3IBG2ivtL27hc_QX_15x-43" value="Footer" style="rounded=0;whiteSpace=wrap;html=1;" parent="1" vertex="1">
          <mxGeometry x="815" y="1210" width="120" height="30" as="geometry" />
        </mxCell>
        <mxCell id="3IBG2ivtL27hc_QX_15x-48" value="User Detail Form" style="rounded=0;whiteSpace=wrap;html=1;fontSize=22;" parent="1" vertex="1">
          <mxGeometry x="660" y="830" width="360" height="320" as="geometry" />
        </mxCell>
        <mxCell id="3IBG2ivtL27hc_QX_15x-50" value="Get ALL Names" style="rounded=0;whiteSpace=wrap;html=1;fontSize=22;" parent="1" vertex="1">
          <mxGeometry x="1850" y="290" width="220" height="80" as="geometry" />
        </mxCell>
        <mxCell id="3IBG2ivtL27hc_QX_15x-54" style="edgeStyle=orthogonalEdgeStyle;rounded=0;orthogonalLoop=1;jettySize=auto;html=1;exitX=0.25;exitY=0;exitDx=0;exitDy=0;entryX=1.004;entryY=0.764;entryDx=0;entryDy=0;endArrow=open;endFill=0;strokeWidth=1;fontSize=22;entryPerimeter=0;" parent="1" source="3IBG2ivtL27hc_QX_15x-52" target="3IBG2ivtL27hc_QX_15x-18" edge="1">
          <mxGeometry relative="1" as="geometry">
            <Array as="points">
              <mxPoint x="1315" y="508" />
            </Array>
          </mxGeometry>
        </mxCell>
        <mxCell id="3IBG2ivtL27hc_QX_15x-52" value="POST a user info" style="rounded=0;whiteSpace=wrap;html=1;fontSize=22;" parent="1" vertex="1">
          <mxGeometry x="1840" y="930" width="220" height="80" as="geometry" />
        </mxCell>
        <mxCell id="3IBG2ivtL27hc_QX_15x-57" style="edgeStyle=orthogonalEdgeStyle;rounded=0;orthogonalLoop=1;jettySize=auto;html=1;exitX=0.5;exitY=0;exitDx=0;exitDy=0;entryX=0.467;entryY=0.984;entryDx=0;entryDy=0;entryPerimeter=0;endArrow=open;endFill=0;strokeWidth=1;fontSize=22;" parent="1" source="3IBG2ivtL27hc_QX_15x-56" target="3IBG2ivtL27hc_QX_15x-52" edge="1">
          <mxGeometry relative="1" as="geometry" />
        </mxCell>
        <mxCell id="3IBG2ivtL27hc_QX_15x-56" value="" style="rounded=0;whiteSpace=wrap;html=1;fontSize=22;" parent="1" vertex="1">
          <mxGeometry x="1370" y="1080" width="210" height="210" as="geometry" />
        </mxCell>
      </root>
    </mxGraphModel>
  </diagram>
</mxfile>
